<svg id="call-center-operator-svgrepo-com" xmlns="http://www.w3.org/2000/svg" width="29.861" height="32.939" viewBox="0 0 29.861 32.939">
  <path id="Path_55814" data-name="Path 55814" d="M31.442,28.558v4.381H1.581V28.557c0-2.069,1.784-4.616,3.962-5.65l4.848-2.3,3.366,7.013,1.723-4.672a5.521,5.521,0,0,0,1.031.15,5.532,5.532,0,0,0,1.031-.15l1.636,4.442,3.3-6.862,5.005,2.38C29.658,23.941,31.442,26.487,31.442,28.558ZM5.985,13.2V10.039a1.516,1.516,0,0,1,.7-1.277,9.893,9.893,0,0,1,19.656,0,1.517,1.517,0,0,1,.7,1.277V13.2A1.522,1.522,0,1,1,24,13.2v-.665c-.824,4.142-3.856,7.988-7.485,7.988S9.853,16.681,9.03,12.538V13.2a1.518,1.518,0,0,1-1.071,1.446,8.879,8.879,0,0,0,3.8,5.01,1.552,1.552,0,0,1,1.195.127c.674.35,1.017,1.032.762,1.519a1.236,1.236,0,0,1-1.683.244,1.472,1.472,0,0,1-.841-1.1,9.862,9.862,0,0,1-4.254-5.839A1.519,1.519,0,0,1,5.985,13.2Zm1.738-4.8a.443.443,0,0,1,.133.02.484.484,0,0,1,.245.212,1.516,1.516,0,0,1,.755.714c.449-4.207,3.7-6.432,7.655-6.432s7.206,2.226,7.655,6.432a1.509,1.509,0,0,1,1.154-.815,8.911,8.911,0,0,0-17.6-.131Z" transform="translate(-1.581)" fill="#deeeff"/>
</svg>
