<svg xmlns="http://www.w3.org/2000/svg" width="40.993" height="25.463" viewBox="0 0 40.993 25.463">
  <path id="cloud-black-icon" d="M39.51,10.808c1.959,3.013,2.035,8.108-.12,10.975-1.376,1.831-3.591,3.013-6.468,3.681H6.993A7.691,7.691,0,0,1,2.933,23.8c-3.685-3.075-4.14-9.27.028-12.286a11.06,11.06,0,0,1,4.63-1.8C9.75-1.642,24.421-3.2,29.77,5.878a10.95,10.95,0,0,0-1.668.808,12.707,12.707,0,0,0-3.526,3.136.988.988,0,0,0,1.56,1.212,10.718,10.718,0,0,1,2.97-2.65A7.418,7.418,0,0,1,39.51,10.808Z" transform="translate(0 0)" fill="#deeeff" fill-rule="evenodd"/>
</svg>
