<svg xmlns="http://www.w3.org/2000/svg" width="362.344" height="118.124" viewBox="0 0 362.344 118.124">
  <path id="Path_55909" data-name="Path 55909" d="M20735.572,1874.621h44.582l.049.143,42.105,79.635-26.248,38.346Zm316.9,110.8,2.271-14.344c6.109,3.41,11.785,5.538,17.324,5.538,4.83,0,7.668-2.271,7.668-5.962,0-2.843-1.562-4.972-7.811-6.814l-2.553-1c-9.8-3.41-15.625-10.224-15.625-20.025,0-11.357,8.949-19.877,22.863-19.877a49,49,0,0,1,19.174,4.4l-2.416,14.487c-5.68-2.981-11.785-4.686-15.9-4.686-4.258,0-6.393,2.271-6.393,5.109,0,2.557,1.42,4.543,6.678,6.391l2.838,1c11.506,3.976,17.324,10.505,17.324,20.587,0,12.5-9.514,21.015-24,21.015A44.909,44.909,0,0,1,21052.477,1985.416Zm-81.51-28.259c0-19.31,15.625-34.221,35.645-34.221s35.5,14.91,35.5,34.221c0,19.173-15.477,34.078-35.5,34.078S20970.967,1976.33,20970.967,1957.157Zm18.32-.143a17.189,17.189,0,0,0,17.324,17.611c9.8,0,17.182-7.667,17.182-17.611s-7.385-17.463-17.182-17.463A17.067,17.067,0,0,0,20989.287,1957.014Zm-133.621.143c0-19.167,14.91-34.221,34.787-34.221,16.9,0,30.674,11.077,32.377,30.673l-47.145,15.191c3.268,4.829,8.8,7.81,15.906,7.81,7.381,0,15.334-2.981,23.572-10.367l5.539,14.2a46.283,46.283,0,0,1-29.254,10.791C20870.861,1991.235,20855.666,1976.33,20855.666,1957.157Zm16.895-2.129,31.383-10.224a14.866,14.866,0,0,0-13.348-7.386C20880.8,1937.418,20873.557,1944.8,20872.561,1955.029Zm64.615,34.364V1889l19.453-2.414v102.811Zm-99.057-84.718q-1.954-3.669-4.189-7.047a137.686,137.686,0,0,0-8.578-11.146l-5.283-5.475-3.812-3.24-4-2.859v-.1l57.105.048q-5.036,6.068-9.621,12.575l-10.383,14.863-7.1,10.807Z" transform="translate(-20735.572 -1874.621)" fill="#000"/>
</svg>
