<svg xmlns="http://www.w3.org/2000/svg" width="29.579" height="32.941" viewBox="0 0 29.579 32.941">
  <g id="sns-person-2-svgrepo-com" transform="translate(-26.128)">
    <path id="Path_55816" data-name="Path 55816" d="M256.408,13.146a6.573,6.573,0,1,0-6.573-6.574A6.574,6.574,0,0,0,256.408,13.146Z" transform="translate(-209.314)" fill="#deeeff"/>
    <path id="Path_55817" data-name="Path 55817" d="M55.544,97.886a4.9,4.9,0,1,0,4.9,4.9A4.9,4.9,0,0,0,55.544,97.886Z" transform="translate(-22.938 -91.588)" fill="#deeeff"/>
    <path id="Path_55818" data-name="Path 55818" d="M26.128,272.022v3.7a5.654,5.654,0,0,0,5.654,5.654H36.4V270.7l.045-.211a6.8,6.8,0,0,1,.469-1.377,7.122,7.122,0,0,0-4.367-1.369C28.494,267.741,26.466,270.446,26.128,272.022Z" transform="translate(0 -250.515)" fill="#deeeff"/>
    <path id="Path_55819" data-name="Path 55819" d="M226.742,227.817c-5.439,0-8.16,3.627-8.613,5.742v9.458a3.084,3.084,0,0,0,3.084,3.084h11.058a3.084,3.084,0,0,0,3.084-3.084v-9.458C234.9,231.444,232.182,227.817,226.742,227.817Z" transform="translate(-179.648 -213.16)" fill="#deeeff"/>
  </g>
</svg>
