<svg id="Group_11084" data-name="Group 11084" xmlns="http://www.w3.org/2000/svg" width="23.142" height="23.76" viewBox="0 0 23.142 23.76">
  <path id="Path_55829" data-name="Path 55829" d="M18.352,25.177a9.127,9.127,0,0,0,2.508-6.072,7.163,7.163,0,1,0-14.327,0A8.379,8.379,0,0,0,7.1,22.03a7.207,7.207,0,0,0,4.8,4.083,2.31,2.31,0,0,1,1.8-.857,2.332,2.332,0,1,1-2.105,3.332,9.681,9.681,0,0,1-4.813-2.654C3.957,27.14,2.126,29.06,2.126,31.228c0,3.652,23.142,3.652,23.142,0C25.268,28.523,22.423,26.2,18.352,25.177Z" transform="translate(-2.126 -10.207)" fill="#003e7f"/>
  <path id="Path_55830" data-name="Path 55830" d="M27.966,17.661a1.509,1.509,0,1,0,.077-.824A8.067,8.067,0,1,1,37.514,8.9h.826a8.9,8.9,0,1,0-10.374,8.764Z" transform="translate(-17.872)" fill="#003e7f"/>
</svg>
