<svg xmlns="http://www.w3.org/2000/svg" width="21.034" height="24.347" viewBox="0 0 21.034 24.347">
  <g id="constructor-with-hard-hat-protection-on-his-head-svgrepo-com" transform="translate(-62.397)">
    <path id="Path_55832" data-name="Path 55832" d="M77.247,331.6a2.234,2.234,0,0,0-1.753-.768H73.977l-1-.96a4.045,4.045,0,0,1-2.581.948,3.99,3.99,0,0,1-2.449-.852l-.888.852H65.484a2.4,2.4,0,0,0-1.921.84c-1.428,1.656-1.188,5.2-1.08,6.29H78.471C78.555,336.843,78.7,333.218,77.247,331.6Z" transform="translate(0 -316.929)" fill="#003e7f"/>
    <path id="Path_55833" data-name="Path 55833" d="M148.583,182.376a1.383,1.383,0,0,0-.48,1.068,1.275,1.275,0,0,0,.984,1.3,4.418,4.418,0,0,0,1.14,2.521,3.936,3.936,0,0,0,.408.372,3.633,3.633,0,0,0,.576.372,3.211,3.211,0,0,0,3,0,3.632,3.632,0,0,0,.576-.372,3.938,3.938,0,0,0,.408-.372,4.37,4.37,0,0,0,1.128-2.509h.036a1.23,1.23,0,0,0,1.14-1.308,1.383,1.383,0,0,0-.48-1.068Z" transform="translate(-82.344 -175.222)" fill="#003e7f"/>
    <path id="Path_55834" data-name="Path 55834" d="M148.387,40.795a5.489,5.489,0,0,0-2.6-3.145V40.9a1,1,0,0,1-.1.372.944.944,0,0,1-.828.516h-1.512a.942.942,0,0,1-.924-.8.492.492,0,0,1-.012-.132V37.638a5.549,5.549,0,0,0-2.6,3.157l-.084.264h-.684v1.5h10.11v-1.5h-.675Z" transform="translate(-73.632 -36.162)" fill="#003e7f"/>
    <path id="Path_55835" data-name="Path 55835" d="M234.959,5.258h1.5a.553.553,0,0,0,.492-.3.514.514,0,0,0,.072-.264V.744a.936.936,0,0,0-.048-.264.759.759,0,0,0-.7-.48h-1.32a.549.549,0,0,0-.552.492c0,.024-.012.048-.012.072V4.693a.6.6,0,0,0,.1.324A.585.585,0,0,0,234.959,5.258Z" transform="translate(-165.251)" fill="#003e7f"/>
    <path id="Path_55824" data-name="Path 55824" d="M40.291,25.976l-1.2-.7a4.109,4.109,0,0,0-.083-.681c.317-.274.952-.818.952-.818v-1.1l-1.567-1.828h-1.1l-.78.669a5.282,5.282,0,0,0-.892-.334c-.025-.31-.075-.929-.075-.929l-.776-.776-2.4.194-.776.776s.066.814.1,1.221a4.521,4.521,0,0,0-.662.452l-1.014-.462-1.061.278-1,2.188-.035.149.314.913,1.175.536a3.964,3.964,0,0,0,.121.755l-.9.759v1.1l1.555,1.836s.9.107.952.081l.145-.081.852-.721a5.181,5.181,0,0,0,.749.268c.029.322.089.968.089.968l.776.777,2.394-.218.776-.776s-.075-.832-.113-1.247a4.833,4.833,0,0,0,.56-.372l.936.539,1.061-.278,1.2-2.082ZM34.115,27.9a2.42,2.42,0,1,1,2.42-2.42A2.42,2.42,0,0,1,34.115,27.9Z" transform="translate(42.541 -7.436)" fill="#003e7f" stroke="#fff" stroke-width="0.6"/>
  </g>
</svg>
