<svg xmlns="http://www.w3.org/2000/svg" width="30.502" height="24.154" viewBox="0 0 30.502 24.154">
  <g id="computer-worker-on-frontal-view-svgrepo-com" transform="translate(0 -83.295)">
    <path id="Path_55836" data-name="Path 55836" d="M372.336,381.766l-1.149-1.149-1.149,1.149.365.365v1.1h1.568v-1.1Z" transform="translate(-355.936 -285.991)" fill="#003e7f"/>
    <path id="Path_55837" data-name="Path 55837" d="M272.15,88.479a5.184,5.184,0,1,0-5.184,5.184A5.184,5.184,0,0,0,272.15,88.479Z" transform="translate(-251.806)" fill="#003e7f"/>
    <path id="Path_55838" data-name="Path 55838" d="M27.389,383.784l.037-.011.058-.017.04-.014.056-.019.042-.017.053-.021.042-.019.051-.023.042-.021.05-.026.039-.022.051-.03.035-.023.052-.034.032-.023.053-.039.03-.024.051-.042.012-.01.019-.017.045-.04.035-.034.036-.036.04-.042.027-.03.043-.049.021-.025.044-.056.017-.023.043-.06.015-.023.039-.061.016-.028.034-.058.019-.036.026-.051.022-.047.019-.042c.009-.02.017-.039.024-.059l.013-.032c.009-.023.017-.046.025-.069l.008-.025c.008-.025.016-.05.023-.075l.006-.021c.007-.026.013-.051.019-.077l0-.021c.006-.025.01-.05.015-.075l0-.027c0-.023.007-.047.011-.07l0-.035q0-.031.006-.063c0-.015,0-.03,0-.045s0-.036,0-.054,0-.036,0-.054,0-.02,0-.029,0-.012,0-.018,0-.039,0-.059,0-.03,0-.045,0-.039,0-.058,0-.031,0-.047,0-.036-.007-.053,0-.033-.007-.05-.006-.032-.009-.049-.006-.036-.01-.053-.007-.029-.01-.044-.008-.038-.013-.056l-.012-.042c-.005-.019-.01-.038-.016-.056s-.01-.028-.014-.042-.012-.036-.019-.054l-.017-.044c-.007-.017-.013-.034-.02-.051l-.02-.045-.022-.048-.023-.044-.025-.047-.024-.042-.028-.048-.025-.038-.032-.049-.025-.035-.036-.05-.026-.033-.039-.048-.011-.013-6.686-7.83a2.088,2.088,0,0,0-1.6-.733v2.9h.9a1.072,1.072,0,0,1,1.071,1.07v4.566a2.039,2.039,0,0,1,.08,3.408H21.09a.754.754,0,0,0,.576-.733v-7.062a.755.755,0,0,0-.755-.755H9.59a.755.755,0,0,0-.755.755v7.062a.755.755,0,0,0,.576.733H8.287a2.039,2.039,0,0,1,.08-3.408v-4.566a1.072,1.072,0,0,1,1.07-1.07h.9v-2.906h-.09v0a2.088,2.088,0,0,0-1.508.732L2.054,380.4l-.011.013L2,380.46l-.026.033-.036.05-.025.035-.032.049-.024.038-.028.048-.024.042-.024.047-.023.044-.022.048-.02.045c-.007.017-.013.034-.02.051l-.017.044c-.007.018-.012.036-.019.054l-.014.042c-.006.019-.011.038-.016.056s-.008.028-.012.042-.009.037-.013.056-.007.029-.01.044-.007.036-.01.053-.006.032-.009.049,0,.033-.007.05,0,.036-.007.053,0,.031,0,.047,0,.039,0,.058,0,.03,0,.045,0,.039,0,.059,0,.012,0,.018,0,.02,0,.029,0,.036,0,.054,0,.036,0,.054,0,.03,0,.045,0,.042.006.063l0,.035c0,.023.007.047.011.07l0,.027c0,.025.01.05.015.075l0,.021q.009.039.019.077l.006.021c.007.025.015.05.023.075l.008.025c.008.023.016.046.025.069l.013.032.024.059.019.042.022.048.026.051.019.036.033.058.017.028.039.061.015.023.043.06.017.023.044.056.021.025.043.049.027.03.04.042.036.036.035.034.045.04.019.017.012.01.051.042.03.024.053.039.032.023.052.034.035.023.051.03.039.022.05.026.042.021.051.023.043.019.053.021.042.017.056.019.041.014.057.017.037.011H0v1.206H30.5v-1.206H27.389Z" transform="translate(0 -277.541)" fill="#003e7f"/>
  </g>
</svg>
