<svg id="Layer_5_47_" xmlns="http://www.w3.org/2000/svg" width="24.984" height="23.767" viewBox="0 0 24.984 23.767">
  <path id="Path_55831" data-name="Path 55831" d="M22.909,16.968h-.9c-.247,0-.255-.161-.263-.242a8.891,8.891,0,0,0-8.828-7.935h-.848A8.891,8.891,0,0,0,3.25,16.627c-.013.113-.02.34-.228.34H2.075c-.622,0-2.075.655-2.075,3.961v1.735c0,2.452,1.452,3.018,2.075,3.018H5.091a1.135,1.135,0,0,0,1.131-1.131V18.1a1.135,1.135,0,0,0-1.131-1.131s-.142-.012-.106-.265a7.18,7.18,0,0,1,7.083-6.181h.848a7.159,7.159,0,0,1,7.073,6.11c.016.111.077.336-.1.336A1.135,1.135,0,0,0,18.762,18.1v6.452a1.135,1.135,0,0,0,1.131,1.131h.566c.156,0,.129.124.115.187-.461,2.083-1.5,4.447-3.823,4.447H15.03a.266.266,0,0,1-.253-.19,1.643,1.643,0,0,0-1.442-.856H11.748a1.644,1.644,0,1,0,0,3.288h1.587a1.643,1.643,0,0,0,1.454-.876c.024-.046.044-.14.23-.14h1.734c1.579,0,3.693-.785,4.793-4.524.117-.4.212-.8.29-1.178a.157.157,0,0,1,.182-.157h.893c.622,0,2.075-.566,2.075-3.018V20.929C24.984,17.669,23.532,16.968,22.909,16.968Z" transform="translate(0 -8.791)" fill="#003e7f"/>
</svg>
