<svg xmlns="http://www.w3.org/2000/svg" width="33.597" height="34.403" viewBox="0 0 33.597 34.403">
  <path id="setting-gear-cogwheel-svgrepo-com" d="M27.942,6.088h0A2.573,2.573,0,0,1,24.08,3.862v0a2.714,2.714,0,0,0-2.714-2.714H15.215A2.714,2.714,0,0,0,12.5,3.858v0A2.573,2.573,0,0,1,8.642,6.089h0a2.714,2.714,0,0,0-3.708.993L1.856,12.408a2.714,2.714,0,0,0,.993,3.708l0,0a2.572,2.572,0,0,1,0,4.455l0,0a2.714,2.714,0,0,0-.993,3.708l3.075,5.326a2.714,2.714,0,0,0,3.708.993h0A2.573,2.573,0,0,1,12.5,32.829v0a2.714,2.714,0,0,0,2.714,2.714h6.151a2.714,2.714,0,0,0,2.714-2.714v0A2.573,2.573,0,0,1,27.939,30.6h0a2.714,2.714,0,0,0,3.708-.993l3.075-5.326a2.714,2.714,0,0,0-.993-3.708l0,0a2.572,2.572,0,0,1,0-4.455l0,0a2.714,2.714,0,0,0,.993-3.708L31.65,7.082a2.714,2.714,0,0,0-3.708-.993ZM18.29,10.24A8.105,8.105,0,1,0,26.4,18.345,8.11,8.11,0,0,0,18.29,10.24Z" transform="translate(-1.492 -1.144)" fill="#deeeff" fill-rule="evenodd"/>
</svg>
