<?xml version="1.0" encoding="UTF-8"?>
<svg version="1.1" xmlns="http://www.w3.org/2000/svg" width="200" height="200">
<path d="M0 0 C5.38937415 -0.07464507 10.77844152 -0.12883434 16.16821289 -0.16479492 C17.99834441 -0.17979997 19.82844046 -0.20021059 21.65844727 -0.22631836 C24.30233558 -0.26306906 26.94574492 -0.27980937 29.58984375 -0.29296875 C30.79978249 -0.31619453 30.79978249 -0.31619453 32.03416443 -0.33988953 C39.55884724 -0.34207511 46.75314285 1.25269387 52.6015625 6.265625 C54 8 54 8 55.1484375 10.734375 C56.77254002 14.35809508 57.92705191 16.43130847 61 19 C66.54232006 20.28471185 72.19667811 20.00501907 77.84765625 19.875 C82.31256688 19.83409638 85.23959731 20.39074099 89 23 C90.546875 24.6640625 90.546875 24.6640625 91.75 26.625 C92.23726563 27.40488281 92.72453125 28.18476562 93.2265625 28.98828125 C94.64559672 31.39813893 96.05589746 33.81245566 97.4609375 36.23046875 C97.89954102 36.98312012 98.33814453 37.73577148 98.79003906 38.51123047 C99.66686667 40.02274784 100.53626453 41.53860442 101.39746094 43.05908203 C104.95377249 49.72230812 104.95377249 49.72230812 111.0703125 53.609375 C115.03149354 53.89519163 115.03149354 53.89519163 119 54 C118.45690996 58.89717402 116.21641135 62.25726926 113.625 66.3125 C110.73286047 70.84196368 108.46482239 75.14601096 106.6796875 80.22094727 C105.80964998 82.49823297 104.61861392 84.34521116 103.1875 86.3125 C100.82651226 89.68450477 98.83908331 93.09876401 96.9375 96.75 C93.24879398 103.62789976 88.94775409 107.52612296 82 111 C75.06591558 111.68751545 68.52901936 112.10705095 62.82958984 107.64257812 C56.34553579 101.82129234 52.2684272 93.59008775 48 86.125 C46.81309513 84.0647612 45.62560088 82.00486182 44.4375 79.9453125 C43.86 78.94145508 43.2825 77.93759766 42.6875 76.90332031 C41.13211768 74.22730664 39.54327721 71.57566545 37.9375 68.9296875 C35.34701912 64.63749026 32.94123217 60.26322917 30.55859375 55.85302734 C27.79259053 50.78982031 24.89068651 45.80522622 22 40.8125 C21.35861084 39.70060303 20.71722168 38.58870605 20.05639648 37.44311523 C16.70296825 31.63741833 13.32590882 25.84738937 9.91015625 20.078125 C9.26369141 18.98266357 8.61722656 17.88720215 7.95117188 16.75854492 C6.71201348 14.66161853 5.46739674 12.56790612 4.21679688 10.4777832 C3.66185547 9.53765381 3.10691406 8.59752441 2.53515625 7.62890625 C2.044104 6.80463135 1.55305176 5.98035645 1.04711914 5.13110352 C0 3 0 3 0 0 Z " fill="#ffffff" transform="translate(41,44)"/>
<path d="M0 0 C0.99 0.495 0.99 0.495 2 1 C3.59622007 1.11701749 5.19669525 1.17874488 6.796875 1.2109375 C7.7559375 1.23929688 8.715 1.26765625 9.703125 1.296875 C11.71857369 1.34855317 13.73422378 1.39294158 15.75 1.4296875 C21.18050297 1.60392824 25.37362884 1.83767035 30 5 C31.546875 6.6640625 31.546875 6.6640625 32.75 8.625 C33.48089844 9.79482422 33.48089844 9.79482422 34.2265625 10.98828125 C35.64559672 13.39813893 37.05589746 15.81245566 38.4609375 18.23046875 C38.89954102 18.98312012 39.33814453 19.73577148 39.79003906 20.51123047 C40.66686667 22.02274784 41.53626453 23.53860442 42.39746094 25.05908203 C45.95377249 31.72230812 45.95377249 31.72230812 52.0703125 35.609375 C56.03149354 35.89519163 56.03149354 35.89519163 60 36 C59.46018402 40.93410745 57.16743479 44.34868999 54.5625 48.4375 C51.74645154 52.87288754 49.44566063 56.88883919 48 62 C45.95513848 61.85133796 43.91377961 61.65414884 41.875 61.4375 C40.73804688 61.33308594 39.60109375 61.22867188 38.4296875 61.12109375 C31.16507126 58.74644129 27.88637972 51.48921674 24.5 45.0625 C23.64440686 43.48172822 22.7861804 41.90237981 21.92578125 40.32421875 C21.46381348 39.47649902 21.0018457 38.6287793 20.52587891 37.75537109 C17.66085954 32.58183372 14.67145684 27.48055956 11.6875 22.375 C11.10097656 21.36832275 10.51445313 20.36164551 9.91015625 19.32446289 C7.00237455 14.35160848 4.05655708 9.43578999 0.85864258 4.64306641 C0 3 0 3 0 0 Z " fill="#ffffff" transform="translate(100,62)"/>
<path d="M0 0 C0.99 0.495 0.99 0.495 2 1 C3.66565749 1.15222973 5.33656496 1.24917215 7.0078125 1.31640625 C7.99394531 1.35830078 8.98007813 1.40019531 9.99609375 1.44335938 C11.54490234 1.50233398 11.54490234 1.50233398 13.125 1.5625 C14.68541016 1.62727539 14.68541016 1.62727539 16.27734375 1.69335938 C18.85142528 1.7996288 21.42560508 1.90166583 24 2 C24 2.33 24 2.66 24 3 C18.06 3 12.12 3 6 3 C10.96034765 11.72358958 15.93553296 20.43843409 20.93280029 29.14093018 C21.94589402 30.90574698 22.95760528 32.67135719 23.96923828 34.43701172 C25.71997 37.4844789 27.48262136 40.5246646 29.25 43.5625 C29.77360107 44.47660645 30.29720215 45.39071289 30.83666992 46.33251953 C31.3288501 47.17282715 31.82103027 48.01313477 32.328125 48.87890625 C32.7499707 49.6066626 33.17181641 50.33441895 33.60644531 51.08422852 C35.19554692 53.26882563 36.70447541 54.58103303 39 56 C44.02638169 56.54833255 46.90914193 55.9751695 51 53 C50.01 55.97 49.02 58.94 48 62 C45.95513848 61.85133796 43.91377961 61.65414884 41.875 61.4375 C40.73804688 61.33308594 39.60109375 61.22867188 38.4296875 61.12109375 C31.16507126 58.74644129 27.88637972 51.48921674 24.5 45.0625 C23.64440686 43.48172822 22.7861804 41.90237981 21.92578125 40.32421875 C21.46381348 39.47649902 21.0018457 38.6287793 20.52587891 37.75537109 C17.66085954 32.58183372 14.67145684 27.48055956 11.6875 22.375 C11.10097656 21.36832275 10.51445313 20.36164551 9.91015625 19.32446289 C7.00237455 14.35160848 4.05655708 9.43578999 0.85864258 4.64306641 C0 3 0 3 0 0 Z " fill="#ffffff" transform="translate(100,62)"/>
</svg>
