<svg width="603" height="132" viewBox="0 0 603 132" fill="none" xmlns="http://www.w3.org/2000/svg">
<g clip-path="url(#clip0_18_2)">
<path d="M240 13H284.582L284.631 13.143L326.737 92.778L300.489 131.124L240 13ZM556.901 123.8L559.17 109.456C565.279 112.866 570.955 114.994 576.494 114.994C581.324 114.994 584.162 112.723 584.162 109.032C584.162 106.189 582.601 104.06 576.352 102.218L573.799 101.218C563.999 97.808 558.174 90.994 558.174 81.193C558.174 69.836 567.123 61.316 581.037 61.316C587.66 61.4714 594.183 62.9683 600.211 65.716L597.795 80.203C592.115 77.222 586.01 75.5169 581.895 75.5169C577.637 75.5169 575.502 77.7879 575.502 80.6259C575.502 83.1829 576.922 85.1689 582.18 87.0169L585.018 88.0169C596.524 91.9929 602.342 98.522 602.342 108.604C602.342 121.104 592.828 129.619 578.342 129.619C570.821 129.503 563.45 127.501 556.905 123.795L556.901 123.8ZM475.391 95.541C475.391 76.231 491.015 61.32 511.035 61.32C531.055 61.32 546.535 76.23 546.535 95.541C546.535 114.714 531.058 129.619 511.035 129.619C491.012 129.619 475.395 114.709 475.395 95.536L475.391 95.541ZM493.709 95.398C493.653 97.702 494.062 99.9938 494.908 102.137C495.755 104.281 497.023 106.232 498.639 107.875C500.255 109.518 502.186 110.819 504.315 111.701C506.444 112.583 508.729 113.028 511.033 113.009C520.833 113.009 528.215 105.342 528.215 95.398C528.215 85.454 520.83 77.935 511.033 77.935C508.738 77.9005 506.46 78.3295 504.334 79.1964C502.208 80.0633 500.277 81.3503 498.66 82.9802C497.043 84.6101 495.772 86.5496 494.922 88.6825C494.072 90.8153 493.662 93.0977 493.715 95.393L493.709 95.398ZM360.088 95.541C360.088 76.374 374.998 61.32 394.875 61.32C411.775 61.32 425.549 72.397 427.252 91.993L380.108 107.184C383.376 112.013 388.908 114.994 396.014 114.994C403.395 114.994 411.348 112.013 419.586 104.627L425.125 118.827C416.916 125.699 406.577 129.513 395.871 129.618C375.289 129.614 360.094 114.709 360.094 95.536L360.088 95.541ZM376.985 93.412L408.367 83.188C407.017 80.8658 405.063 78.9528 402.713 77.6523C400.363 76.3518 397.704 75.7123 395.02 75.802C385.229 75.797 377.985 83.1791 376.989 93.4081L376.985 93.412ZM441.6 127.776V27.379L461.051 24.9651V127.776H441.6ZM342.541 43.058C341.239 40.612 339.844 38.263 338.354 36.011C335.686 32.1519 332.823 28.4317 329.776 24.865L324.492 19.39L320.68 16.15L316.68 13.291V13.191L373.785 13.239C370.428 17.2843 367.221 21.4761 364.164 25.8141L353.782 40.677L346.682 51.484L342.541 43.058Z" fill="black"/>
</g>
<g clip-path="url(#clip1_18_2)">
<path d="M0.043186 45.5856C-0.128663 43.2053 0.213662 40.8158 1.04693 38.5794C1.88019 36.3431 3.18488 34.3122 4.87242 32.6246C6.55997 30.9371 8.59086 29.6324 10.8272 28.7991C13.0636 27.9659 15.4531 27.6235 17.8334 27.7954V8.89345C17.8334 6.53432 16.8963 4.27181 15.2281 2.60366C13.5599 0.935497 11.2974 -0.00167044 8.9383 -0.00167044C6.57917 -0.00167044 4.31665 0.935497 2.64849 2.60366C0.980328 4.27181 0.043186 6.53432 0.043186 8.89345V45.5856Z" fill="black"/>
<path d="M31.564 127.682C35.7311 127.701 39.871 127.009 43.8058 125.637C25.0825 128.79 17.8566 116.003 17.8566 101.551V42.2543H39.541C40.5779 42.4052 41.6351 42.3312 42.6408 42.0373C43.6465 41.7433 44.5772 41.2364 45.3696 40.551C46.162 39.8655 46.7977 39.0175 47.2334 38.0646C47.669 37.1117 47.8945 36.0762 47.8945 35.0284C47.8945 33.9806 47.669 32.9451 47.2334 31.9922C46.7977 31.0393 46.162 30.1913 45.3696 29.5058C44.5772 28.8203 43.6465 28.3134 42.6408 28.0195C41.6351 27.7256 40.5779 27.6516 39.541 27.8025H17.8334C15.4531 27.6306 13.0636 27.9729 10.8272 28.8062C8.59086 29.6395 6.55997 30.9441 4.87242 32.6317C3.18488 34.3192 1.88019 36.3501 1.04693 38.5865C0.213662 40.8229 -0.128663 43.2123 0.043186 45.5927V96.5448C0.043186 116.936 11.7126 127.682 31.564 127.682Z" fill="black"/>
<path d="M43.783 125.64C51.2398 122.888 57.3054 117.298 60.6568 110.09L52.3159 95.0757C48.607 106.179 42.1254 112.128 33.2154 112.128C23.9514 112.128 17.8305 106.748 17.8305 94.5198V101.564C17.8338 116.002 25.0598 128.79 43.783 125.64Z" fill="black"/>
<path d="M119.945 122.679C77.6915 128.965 64.3612 106.374 64.3612 77.2787C64.3612 56.1534 77.3308 41.6949 96.0541 41.6949C102.2 41.6505 108.278 42.9799 113.844 45.5858C115.803 46.5412 117.951 47.0476 120.131 47.0681C121.119 47.1274 122.109 46.9764 123.034 46.6251C123.96 46.2738 124.801 45.7302 125.501 45.0301C126.201 44.33 126.744 43.4894 127.096 42.5637C127.447 41.6381 127.598 40.6485 127.539 39.6602C127.443 38.0152 126.865 36.4349 125.875 35.1171C124.886 33.7994 123.53 32.8029 121.977 32.2522C113.863 28.4492 104.988 26.5471 96.0276 26.6905C66.7434 26.6905 46.5478 47.442 46.5478 77.6427C46.5478 107.291 66.0056 127.86 97.3246 127.86C105.178 128.033 112.951 126.253 119.945 122.679Z" fill="black"/>
<path d="M46.5625 77.6329C46.5625 47.4289 66.7448 26.6808 96.0423 26.6808C105.002 26.5373 113.877 28.4394 121.991 32.2425C123.545 32.7931 124.901 33.7897 125.89 35.1074C126.879 36.4251 127.458 38.0054 127.553 39.6504C127.613 40.6387 127.462 41.6283 127.11 42.554C126.759 43.4796 126.215 44.3203 125.515 45.0203C124.815 45.7204 123.975 46.2641 123.049 46.6154C122.123 46.9667 121.134 47.1176 120.145 47.0583C117.966 47.0378 115.818 46.5314 113.859 45.5761C108.292 42.9727 102.214 41.6435 96.0688 41.6852C70.2784 41.6951 46.5625 58.0031 46.5625 77.6329Z" fill="black"/>
<path d="M157.204 32.6192C156.378 33.4089 155.722 34.3587 155.276 35.4105C154.829 36.4623 154.602 37.5941 154.607 38.7368C154.607 44.8544 160.351 53.9331 173.707 63.1971L188.904 73.7581C200.007 81.5399 204.454 88.9545 204.454 100.071C204.509 103.745 203.795 107.39 202.358 110.772C200.922 114.154 198.795 117.199 196.113 119.711C197.082 118.857 197.851 117.801 198.365 116.617C198.88 115.432 199.128 114.15 199.091 112.859C199.091 106.371 192.603 96.1804 178.703 86.5458L164.807 76.9112C153.131 68.7556 148.503 61.1624 148.503 50.7734C148.457 44.9662 150.58 39.3509 154.458 35.0279C155.332 34.1695 156.256 33.363 157.224 32.6126L157.204 32.6192Z" fill="black"/>
<path d="M145.148 115.82C145.183 117.434 145.72 118.997 146.684 120.292C147.648 121.587 148.991 122.549 150.528 123.046C157.409 126.133 164.852 127.774 172.394 127.866C181.042 128.203 189.504 125.294 196.116 119.711C197.085 118.857 197.854 117.801 198.369 116.616C198.883 115.432 199.131 114.149 199.094 112.859C199.094 106.371 192.606 96.1802 178.707 86.5456C184.993 90.9857 187.59 94.7012 187.59 100.071C187.59 108.038 181.304 113.395 172.205 113.395C163.491 113.395 156.083 108.955 152.023 108.955C151.11 108.907 150.197 109.052 149.343 109.38C148.49 109.708 147.715 110.213 147.069 110.86C146.423 111.508 145.921 112.284 145.595 113.139C145.269 113.993 145.127 114.907 145.178 115.82H145.148Z" fill="black"/>
<path d="M173.698 63.1937C167.762 58.929 165.175 55.0381 165.175 50.4061C165.175 44.4705 169.996 40.7715 176.851 40.7715C185.566 40.7715 189.639 44.8443 194.826 44.8443C195.739 44.8925 196.651 44.7482 197.505 44.4209C198.358 44.0935 199.132 43.5905 199.779 42.9443C200.425 42.2982 200.928 41.5234 201.255 40.6703C201.582 39.8172 201.727 38.9048 201.679 37.9923C201.643 36.3783 201.107 34.8152 200.142 33.5203C199.178 32.2254 197.835 31.2628 196.299 30.7663C190.027 27.8953 183.18 26.502 176.285 26.6935C169.439 26.5218 162.727 28.6076 157.185 32.6291C156.359 33.4187 155.703 34.3685 155.256 35.4203C154.809 36.4721 154.582 37.6039 154.587 38.7466C154.597 44.851 160.351 53.9297 173.698 63.1937Z" fill="black"/>
<path d="M64.3561 77.2782C64.3561 106.371 77.6797 128.985 119.94 122.679C133.466 115.635 143.1 101.358 149.77 79.5048L153.661 66.7172C150.168 62.1488 148.338 56.5256 148.473 50.7764C148.421 44.9707 150.538 39.3544 154.409 35.0276C147.794 42.8117 143.041 52.0022 140.513 61.8999L136.248 75.9812C128.639 100.815 116.609 112.673 97.8687 112.673C77.3257 112.67 64.3561 98.4035 64.3561 77.2782Z" fill="black"/>
</g>
<defs>
<clipPath id="clip0_18_2">
<rect width="362.344" height="118.124" fill="white" transform="translate(240 13)"/>
</clipPath>
<clipPath id="clip1_18_2">
<rect width="224" height="130.629" fill="white"/>
</clipPath>
</defs>
</svg>
